<svg  viewBox="0 0 12 12"  xmlns="http://www.w3.org/2000/svg">
<path d="M2 0.75C2 0.335786 2.33579 0 2.75 0H10.75C10.8517 0 10.9487 0.0202391 11.0371 0.056909C11.1235 0.0926741 11.2046 0.145297 11.2754 0.214777L11.2852 0.224588C11.4181 0.359905 11.5 0.545384 11.5 0.75V8.75C11.5 9.16421 11.1642 9.5 10.75 9.5C10.3358 9.5 10 9.16421 10 8.75V2.56066L1.28033 11.2803C0.987437 11.5732 0.512563 11.5732 0.21967 11.2803C-0.0732233 10.9874 -0.0732233 10.5126 0.21967 10.2197L8.93934 1.5H2.75C2.33579 1.5 2 1.16421 2 0.75Z" fill-opacity="0.4"/>
</svg>
