<?xml version="1.0" encoding="utf-8"?><svg viewBox="0 0 100 45" xmlns="http://www.w3.org/2000/svg" xmlns:xlink="http://www.w3.org/1999/xlink"><style>:root>svg{display:none}:root>svg:target{display:block}</style><svg viewBox="0 0 12 12" id="45ged" xmlns="http://www.w3.org/2000/svg"><path d="M2 .75A.75.75 0 012.75 0h8a.748.748 0 01.525.215l.01.01c.133.135.215.32.215.525v8a.75.75 0 01-1.5 0V2.56l-8.72 8.72a.75.75 0 01-1.06-1.06L8.94 1.5H2.75A.75.75 0 012 .75z" fill-opacity=".4"/></svg><svg fill="none" viewBox="0 0 18 20" id="bottom" xmlns="http://www.w3.org/2000/svg"><path d="M.303 10.895L9 19.592l8.697-8.697-1.668-1.678-5.817 5.826V.408H7.788v14.635L1.962 9.217l-1.66 1.678z" fill="#ADB5BD"/></svg><svg viewBox="0 0 100 45" id="logo" xmlns="http://www.w3.org/2000/svg"><path d="M92.352 16.84c.717-3.094 2.092-6.978 2.54-8.192.15-.243.33-.486.48-.759 1.494-1.82 1.912-3.944 1.912-3.944-.328-1.214-2.062-2.306-2.062-2.306-1.824 2.154-3.408 6.797-4.455 10.408-2.212 2.64-4.394 4.824-4.394 4.824.478-3.55 3.677-10.377 3.617-11.713-.06-1.335-2.571-2.852-2.571-2.852s.21 1.82-1.046 4.855a60.894 60.894 0 00-2.063 5.796c-1.973 3.459-3.917 5.462-3.917 5.462-1.106-1.426-3.198-6.312-3.198-6.312l2.421-2.61s1.435.183 2.511-.272c1.077-.456 2.661-3.581 2.661-3.581-.03-.728-1.495-2.003-1.495-2.003-2.212 1.608-5.77 5.917-7.354 7.89.12-.516.27-1.032.419-1.548 2.361-3.793 3.916-7.343 3.467-8.89a.556.556 0 00-.209-.304C79.048.03 78.54 0 78.54 0s-1.704.728-4.963 11.379c-.747-1.244-.956-2.549-.956-3.702.747-1.517.568-3.186.568-3.186s-.24-1.001-2.302-1.79c0 0-3.14 5.128 1.584 10.802-3.258 4.49-6.427 6.858-6.427 6.858-1.376-.88-3.14-6.585-3.14-6.585l.957-1.214s1.316.152 2.392-.303c1.076-.455 2.212-3.247 2.212-3.247-.03-.728-1.196-2.003-1.196-2.003-2.152 1.578-4.783 4.916-6.009 6.555.21-.79.449-1.608.688-2.428 1.764-2.974 3.08-5.917 3.288-8.314-.657-1.062-1.315-1.092-1.315-1.092s-1.704.88-4.963 11.652c-.747-1.123-1.166-2.185-1.345-3.065.329-.637.538-1.396.538-2.306 0 0-.747-1.548-2.541-1.882 0 0-1.166 1.76-.419 4.613-.568.667-1.464 1.244-2.87 1.608-.747-2.64-2.989-4.157-3.856-4.279 0 0-1.973.577-3.259 2.944 0 0 .18.303.509.698-3.17 3.004-4.724 7.495-5.322 9.74-2.093 2.124-4.125 3.52-4.125 3.52a55.237 55.237 0 012.6-8.132c1.107-2.64 2.003-4.127 2.003-4.127-.328-1.153-1.853-2.124-2.062-2.245l-.03-.03c-.03.03-3.349 3.064-6.04 7.798.868-2.762 1.795-5.28 2.781-7.161-.717-1.063-1.883-1.76-1.883-1.76-4.215 8.86-8.221 24.548-8.221 24.548.239 1.547 2.75 3.762 2.75 3.762s.688-3.762 1.764-8.617c1.345-4.37 3.408-9.589 6.098-13.14-.12.304-.239.638-.328.942-1.406 4.066-2.273 8.223-2.273 8.223.36 1.396 2.213 2.943 2.213 2.943s2.421-2.063 4.604-4.673c1.166 3.763 3.169 3.793 3.169 3.793 6.009-4.248 8.37-11.44 8.938-13.503 1.136-.243 2.362-.667 3.409-1.335.448 1.001 1.165 2.094 2.182 3.247-1.764 2.488-3.08 3.793-3.08 3.793s-1.464-.304-2.54.09c-1.107.395-2.87 3.4-2.87 3.4-.03.727 1.853 2.305 1.853 2.305s3.14-3.398 6.458-7.828c-.838 2.61-1.286 4.339-1.286 4.339.18 1.547 2.6 2.67 2.6 2.67s.569-4.066 1.765-8.982c1.644 5.584 4.155 7.89 4.155 7.89 1.704-.759 4.544-3.793 7.325-7.404-.3 1.062-.568 2.154-.897 3.368-.03.121-.06.182-.06.182.18 1.548 2.451 2.792 2.451 2.792s.509-3.793 1.615-8.527c1.166 4.521 4.096 7.829 4.096 7.829 1.674-1.487 2.96-3.126 3.976-4.734-.03.304-.03.577 0 .82 0 0 .657 1.668 2.032 2.366 0 0 2.063-2.093 4.455-4.855-.27 1.093-.419 1.79-.419 1.79.33 1.396 2.153 2.974 2.153 2.974s5.59-3.61 7.414-8.557l.568-1.699c-2.541 4.036-7.354 7.313-7.354 7.313zm-49.238 8.042c-.27-4.097 2.72-8.648 4.693-11.197.27.152.568.303.867.364 0 0 .867.03 2.063-.121-3.199 8.557-7.623 10.954-7.623 10.954z"/><path d="M48.973 29.252c-.239-.213-1.016-.698-3.139-.304-3.139.577-7.803 2.033-8.73 2.337a.772.772 0 00-.328.212c-.27.303-.897 1.517-1.375 3.914l-.06.273.24-.09c.178-.061 18.445-6.343 35.246-8.133.21.152.957.486 3.318.486h.03c2.81 0 8.281-.516 8.341-.546h.03l.03-.03c.03 0 1.764-1.275 3.05-3.248l.149-.242h-.3c-.119.03-15.784.242-36.502 5.37zM23.681 34.865c-.358-.273-.866-.394-1.524-.334-.18.03-.419.03-.658.091 1.794-7.191 6.189-23.85 9.776-30.07-.717-1.214-2.81-2.033-2.81-2.033v.03c-.06-.03-.09-.03-.09-.03-6.009 8.83-23.318 32.346-23.318 32.346 0 1.002.807 2.003 1.464 2.67-2.6.547-4.962 1.002-6.517 1.275 0 0-.06.607.27 1.274.328 1.123 1.105 2.67 2.78 3.338C5.864 44.515 5.744 45 5.744 45s1.615-1.73.897-3.277c3.946-.698 9.178-1.73 12.975-2.488-.628 2.124 1.405 2.73 1.405 2.73.598-2.123 3.647-3.701 3.647-3.701s.329-2.458-.986-3.399zm-6.726-1.153c.06.455.359 1.001.747 1.517-2.81.547-6.367 1.275-9.716 1.942 2.362-3.762 10.524-16.75 16.533-25.853-3.887 10.105-7.564 22.394-7.564 22.394z"/></svg><svg viewBox="0 0 16 14" id="red-right" xmlns="http://www.w3.org/2000/svg"><path d="M8.945 13.364L15.308 7 8.945.636 7.85 1.73l4.503 4.489H.692V7.78h11.662L7.85 12.284l1.094 1.08z"/></svg><svg viewBox="0 0 20 18" id="telegram" xmlns="http://www.w3.org/2000/svg"><path d="M1.226 7.904L13.14 2.858C14.316 2.332 18.305.65 18.305.65s1.84-.736 1.687 1.051c-.051.736-.46 3.312-.87 6.097l-1.277 8.253s-.103 1.209-.972 1.419c-.87.21-2.3-.736-2.556-.946-.205-.158-3.835-2.523-5.165-3.68-.358-.315-.767-.946.051-1.682 1.841-1.734 4.04-3.89 5.37-5.256.613-.63 1.226-2.102-1.33-.315l-7.21 4.993s-.818.526-2.352.053A104.296 104.296 0 01.357 9.533s-1.227-.788.87-1.63z"/></svg><svg viewBox="0 0 21 21" id="watsapp" xmlns="http://www.w3.org/2000/svg"><path fill-rule="evenodd" clip-rule="evenodd" d="M17.486 3.007A9.896 9.896 0 0014.256.85 9.934 9.934 0 0010.443.1C4.953.1.485 4.546.483 10.01c0 1.747.458 3.452 1.329 4.955L.4 20.1l5.279-1.379a10 10 0 004.759 1.207h.004c5.488 0 9.956-4.446 9.958-9.91a9.816 9.816 0 00-2.914-7.011zm-4.204 8.272c.228.083 1.45.681 1.7.806l.136.066c.173.084.291.14.341.224.062.104.062.6-.145 1.178-.207.579-1.201 1.106-1.68 1.177-.429.063-.971.09-1.567-.098a14.73 14.73 0 01-1.419-.522c-2.335-1.004-3.912-3.257-4.208-3.68l-.042-.06-.004-.004c-.135-.18-1.012-1.35-1.012-2.558 0-1.14.562-1.738.821-2.013l.05-.052a.916.916 0 01.664-.31c.158 0 .317.003.476.01h.054c.146-.002.327-.003.505.422l.28.674c.212.516.446 1.082.487 1.165.064.124.105.269.021.434a9.404 9.404 0 00-.035.072c-.062.126-.108.218-.213.341l-.127.152c-.086.104-.171.208-.246.282-.125.124-.255.257-.11.506.146.248.645 1.058 1.385 1.715a6.434 6.434 0 001.837 1.156c.068.029.123.053.164.073.248.124.394.104.539-.062.145-.165.622-.723.789-.97.166-.248.331-.207.559-.124z"/></svg></svg>